<svg xmlns="http://www.w3.org/2000/svg" viewBox="0 0 256 256" width="100%" height="100%">
    <!-- 배경 정의 (다크 모드 기준의 깊이감 있는 그라데이션) -->
    <defs>
        <linearGradient id="harnessGradient" x1="0%" y1="0%" x2="100%" y2="100%">
            <stop offset="0%" stop-color="#4F46E5" /> <!-- Royal Blue/Indigo -->
            <stop offset="100%" stop-color="#06B6D4" /> <!-- Cyan -->
        </linearGradient>
    </defs>

    <!-- 1. External Harness (외곽 제어 프레임: 육각형의 단단한 통제 구조) -->
    <polygon points="128,16 224,72 224,184 128,240 32,184 32,72" 
             fill="#242526" 
             stroke="url(#harnessGradient)" 
             stroke-width="8" 
             stroke-linejoin="round" />

    <!-- 2. Socratic Pillar & Dialogue (소크라테스 기둥과 구조적 대화의 융합) -->
    <!-- 기둥 받침대 (기반, 원칙) -->
    <path d="M 80,190 L 176,190" stroke="#FFFFFF" stroke-width="8" stroke-linecap="round" />
    <path d="M 72,204 L 184,204" stroke="url(#harnessGradient)" stroke-width="8" stroke-linecap="round" />
    
    <!-- 기둥 줄기 (세 줄의 엄격한 기둥선 / 3대 철학을 상징) -->
    <path d="M 104,120 L 104,190" stroke="#FFFFFF" stroke-width="6" stroke-linecap="round" />
    <path d="M 128,132 L 128,190" stroke="#FFFFFF" stroke-width="6" stroke-linecap="round" />
    <path d="M 152,120 L 152,190" stroke="#FFFFFF" stroke-width="6" stroke-linecap="round" />

    <!-- 말풍선 및 불꽃 형태로 확장되는 기둥 상단 머리 (질문과 메타인지) -->
    <!-- 좌측 기둥 머리 곡선 -->
    <path d="M 96,120 C 96,105 76,105 76,84 C 76,56 100,44 128,44" 
          fill="none" 
          stroke="url(#harnessGradient)" 
          stroke-width="8" 
          stroke-linecap="round" />
          
    <!-- 우측 기둥 머리 곡선 (말풍선의 꼬리 꼬임 형상 결합) -->
    <path d="M 160,120 C 160,105 180,105 180,84 C 180,56 156,44 128,44" 
          fill="none" 
          stroke="url(#harnessGradient)" 
          stroke-width="8" 
          stroke-linecap="round" />

    <!-- 3. Ignorance to Light (무지의 자각을 상징하는 중앙의 빛/스파크 코어) -->
    <circle cx="128" cy="84" r="10" fill="#FFFFFF" />
    <path d="M 128,62 L 128,70" stroke="#06B6D4" stroke-width="4" stroke-linecap="round" />
    <path d="M 128,98 L 128,106" stroke="#06B6D4" stroke-width="4" stroke-linecap="round" />
    <path d="M 106,84 L 114,84" stroke="#06B6D4" stroke-width="4" stroke-linecap="round" />
    <path d="M 142,84 L 150,84" stroke="#06B6D4" stroke-width="4" stroke-linecap="round" />
</svg>
